<svg width="31" height="29" viewBox="0 0 31 29" fill="none" xmlns="http://www.w3.org/2000/svg">
<path d="M29.5444 19.9907H9.19043L10.2124 17.9092L27.1929 17.8784C27.7671 17.8784 28.2593 17.4683 28.3618 16.9009L30.7134 3.73828C30.7749 3.39307 30.6826 3.0376 30.457 2.76758C30.3455 2.63469 30.2065 2.52764 30.0495 2.45387C29.8925 2.38009 29.7213 2.34135 29.5479 2.34033L7.94629 2.26855L7.76172 1.40039C7.64551 0.84668 7.14649 0.443359 6.5791 0.443359H1.29834C0.978345 0.443359 0.671456 0.570477 0.445185 0.796748C0.218914 1.02302 0.0917969 1.32991 0.0917969 1.6499C0.0917969 1.9699 0.218914 2.27679 0.445185 2.50306C0.671456 2.72933 0.978345 2.85645 1.29834 2.85645H5.60156L6.40821 6.69141L8.39405 16.3062L5.8374 20.4795C5.70463 20.6587 5.62466 20.8715 5.60654 21.0938C5.58842 21.316 5.63287 21.539 5.73487 21.7373C5.93994 22.144 6.35352 22.4004 6.81153 22.4004H8.95801C8.50041 23.0082 8.25324 23.7485 8.25391 24.5093C8.25391 26.4438 9.82618 28.0161 11.7607 28.0161C13.6953 28.0161 15.2676 26.4438 15.2676 24.5093C15.2676 23.7471 15.0147 23.0054 14.5635 22.4004H20.0698C19.6122 23.0082 19.3651 23.7485 19.3657 24.5093C19.3657 26.4438 20.938 28.0161 22.8726 28.0161C24.8071 28.0161 26.3794 26.4438 26.3794 24.5093C26.3794 23.7471 26.1265 23.0054 25.6753 22.4004H29.5479C30.2109 22.4004 30.7544 21.8604 30.7544 21.1938C30.7524 20.8742 30.6241 20.5683 30.3974 20.3429C30.1707 20.1175 29.8641 19.9909 29.5444 19.9907ZM8.44873 4.64746L28.1294 4.7124L26.2017 15.5063L10.7422 15.5337L8.44873 4.64746ZM11.7607 25.5894C11.166 25.5894 10.6807 25.104 10.6807 24.5093C10.6807 23.9146 11.166 23.4292 11.7607 23.4292C12.3555 23.4292 12.8408 23.9146 12.8408 24.5093C12.8408 24.7957 12.727 25.0705 12.5245 25.273C12.3219 25.4756 12.0472 25.5894 11.7607 25.5894ZM22.8726 25.5894C22.2778 25.5894 21.7925 25.104 21.7925 24.5093C21.7925 23.9146 22.2778 23.4292 22.8726 23.4292C23.4673 23.4292 23.9526 23.9146 23.9526 24.5093C23.9526 24.7957 23.8388 25.0705 23.6363 25.273C23.4337 25.4756 23.159 25.5894 22.8726 25.5894Z" fill="white"/>
</svg>
