<svg width="13" height="18" viewBox="0 0 13 18" fill="none" xmlns="http://www.w3.org/2000/svg">
<path d="M12.3075 9.68499C12.4186 9.60854 12.5093 9.50625 12.5721 9.38692C12.6348 9.26759 12.6675 9.1348 12.6675 8.99999C12.6675 8.86518 12.6348 8.7324 12.5721 8.61307C12.5093 8.49374 12.4186 8.39144 12.3075 8.31499L1.47419 0.814991C1.34923 0.728178 1.20288 0.677271 1.05103 0.667797C0.89917 0.658323 0.747623 0.690645 0.612849 0.761253C0.478074 0.831862 0.365227 0.938054 0.286569 1.06829C0.20791 1.19853 0.166448 1.34784 0.166688 1.49999L0.166688 16.5C0.167315 16.6518 0.20931 16.8005 0.288157 16.9303C0.367004 17.06 0.47972 17.1657 0.614182 17.2362C0.748645 17.3066 0.899767 17.3391 1.0513 17.3301C1.20283 17.321 1.34903 17.2709 1.47419 17.185L12.3075 9.68499Z" fill="#142F3F"/>
</svg>
