<svg width="13" height="18" viewBox="0 0 13 18" fill="none" xmlns="http://www.w3.org/2000/svg">
<path d="M0.692479 8.31501C0.581445 8.39146 0.490658 8.49375 0.42794 8.61308C0.365222 8.73241 0.332453 8.8652 0.332453 9.00001C0.332453 9.13482 0.365222 9.2676 0.42794 9.38693C0.490658 9.50626 0.581445 9.60856 0.692479 9.68501L11.5258 17.185C11.6508 17.2718 11.7971 17.3227 11.949 17.3322C12.1008 17.3417 12.2524 17.3094 12.3872 17.2387C12.5219 17.1681 12.6348 17.0619 12.7134 16.9317C12.7921 16.8015 12.8336 16.6522 12.8333 16.5L12.8333 1.50001C12.8327 1.34821 12.7907 1.19946 12.7118 1.06974C12.633 0.940028 12.5203 0.834261 12.3858 0.763816C12.2514 0.693371 12.1002 0.660913 11.9487 0.669933C11.7972 0.678953 11.651 0.729109 11.5258 0.815008L0.692479 8.31501Z" fill="#142F3F"/>
</svg>
