<svg width="29" height="29" viewBox="0 0 29 29" fill="none" xmlns="http://www.w3.org/2000/svg">
<path d="M25.7419 22.7581C25.0589 22.1039 24.3941 21.4308 23.7484 20.7398C23.2059 20.1885 22.8792 19.7875 22.8792 19.7875L18.7959 17.8377C20.4306 15.9836 21.3329 13.5968 21.3334 11.125C21.3334 5.49728 16.7542 0.916656 11.125 0.916656C5.49585 0.916656 0.916687 5.49728 0.916687 11.125C0.916687 16.7527 5.49585 21.3333 11.125 21.3333C13.6961 21.3333 16.0396 20.3708 17.8377 18.7973L19.7875 22.8806C19.7875 22.8806 20.1886 23.2073 20.7398 23.7498C21.3042 24.2792 22.0465 24.9952 22.7581 25.7433L24.7386 27.7733L25.6194 28.7154L28.7125 25.6223L27.7704 24.7414C27.2177 24.1989 26.4798 23.4785 25.7419 22.7581ZM11.125 18.4167C7.1044 18.4167 3.83335 15.1456 3.83335 11.125C3.83335 7.10436 7.1044 3.83332 11.125 3.83332C15.1456 3.83332 18.4167 7.10436 18.4167 11.125C18.4167 15.1456 15.1456 18.4167 11.125 18.4167Z" fill="white"/>
</svg>
