<svg width="30" height="30" viewBox="0 0 30 30" fill="none" xmlns="http://www.w3.org/2000/svg">
<path d="M9.42375 28.125C20.745 28.125 26.9381 18.7444 26.9381 10.6237C26.9381 10.3612 26.9381 10.095 26.9269 9.83249C28.1326 8.95965 29.1732 7.87902 30 6.64124C28.8737 7.13783 27.6802 7.46512 26.4581 7.61249C27.7454 6.84306 28.7095 5.63243 29.1712 4.20561C27.9619 4.92209 26.6382 5.42506 25.2581 5.69249C24.3303 4.70441 23.1026 4.04983 21.7652 3.83016C20.4277 3.61048 19.0551 3.83797 17.86 4.47737C16.6649 5.11677 15.714 6.13242 15.1546 7.36698C14.5952 8.60153 14.4585 9.98611 14.7656 11.3062C12.3183 11.1835 9.92403 10.5477 7.7382 9.44013C5.55238 8.33252 3.62378 6.77782 2.0775 4.87686C1.29251 6.23264 1.05295 7.83636 1.40746 9.36236C1.76197 10.8884 2.68398 12.2222 3.98625 13.0931C3.01039 13.06 2.05598 12.7979 1.2 12.3281V12.4125C1.20168 13.8328 1.6937 15.2089 2.59289 16.3083C3.49208 17.4077 4.74328 18.1629 6.135 18.4462C5.60674 18.5918 5.06106 18.6643 4.51312 18.6619C4.12684 18.663 3.74134 18.6272 3.36188 18.555C3.75522 19.7776 4.52114 20.8465 5.55234 21.6121C6.58354 22.3777 7.82838 22.8016 9.1125 22.8244C6.93104 24.5377 4.23638 25.467 1.4625 25.4625C0.973726 25.4646 0.485293 25.4364 0 25.3781C2.81534 27.173 6.08493 28.126 9.42375 28.125Z" fill="white"/>
</svg>
